<?xml version="1.0" encoding="utf-8"?>
<!-- Generator: Moho 12.5 build 22438 -->
<!DOCTYPE svg PUBLIC "-//W3C//DTD SVG 1.1//EN" "http://www.w3.org/Graphics/SVG/1.1/DTD/svg11.dtd">
<svg version="1.1" id="Frame_1" xmlns="http://www.w3.org/2000/svg" xmlns:xlink="http://www.w3.org/1999/xlink" width="1920px" height="1920px">
<g id="Logo">
<path fill="#303030" fill-rule="evenodd" stroke="none" d="M 787.745 1171.451 C 787.716 1171.451 491.713 1171.451 491.684 1171.451 C 491.684 1171.409 489.972 758.981 489.972 758.936 C 489.967 758.932 452.503 723.725 452.499 723.721 C 452.509 723.721 539.722 723.238 539.731 723.238 C 539.731 723.235 539.339 692.561 539.339 692.558 C 539.326 692.558 420.958 693.314 420.946 693.314 C 420.937 693.305 349.024 624.939 349.017 624.933 C 349.039 624.933 524.446 625.703 524.463 625.703 C 524.463 625.700 524.040 600.098 524.040 600.096 C 524.020 600.096 324.312 601.423 324.290 601.423 C 324.273 601.406 188.501 472.331 188.487 472.319 C 188.541 472.319 719.482 472.319 719.541 472.319 C 719.549 472.319 787.745 530.286 787.745 530.293 C 787.745 530.364 787.745 1171.386 787.745 1171.451 Z"/>
<path fill="#303030" fill-rule="evenodd" stroke="none" d="M 1075.296 1171.451 C 1075.326 1171.451 1371.328 1171.451 1371.358 1171.451 C 1371.358 1171.409 1373.070 758.981 1373.070 758.936 C 1373.074 758.932 1410.538 723.725 1410.542 723.721 C 1410.532 723.721 1323.319 723.238 1323.311 723.238 C 1323.311 723.235 1323.702 692.561 1323.702 692.558 C 1323.715 692.558 1442.083 693.314 1442.095 693.314 C 1442.105 693.305 1514.017 624.939 1514.024 624.933 C 1514.002 624.933 1338.596 625.703 1338.578 625.703 C 1338.578 625.700 1339.001 600.098 1339.001 600.096 C 1339.021 600.096 1538.730 601.423 1538.751 601.423 C 1538.769 601.406 1674.540 472.331 1674.554 472.319 C 1674.501 472.319 1143.559 472.319 1143.500 472.319 C 1143.492 472.319 1075.296 530.286 1075.296 530.293 C 1075.296 530.364 1075.296 1171.386 1075.296 1171.451 Z"/>
<path fill="#303030" fill-rule="evenodd" stroke="none" d="M 780.696 859.569 C 780.726 859.569 1083.528 859.569 1083.559 859.569 C 1083.559 859.577 1083.559 947.776 1083.559 947.785 C 1083.528 947.785 780.726 947.785 780.696 947.785 C 780.696 947.776 780.696 859.577 780.696 859.569 Z"/>
<path fill="#303030" fill-rule="evenodd" stroke="none" d="M 918.362 666.219 C 918.363 666.258 924.682 1055.520 924.683 1055.559 C 924.685 1055.520 947.628 666.499 947.631 666.461 C 947.627 666.458 908.273 637.412 908.269 637.409 C 908.270 637.412 918.362 666.216 918.362 666.219 M 918.703 1668.093 C 918.699 1667.993 878.779 676.322 878.775 676.223 C 878.770 676.214 827.855 588.416 827.850 588.407 C 827.870 588.407 1033.172 588.407 1033.193 588.407 C 1033.189 588.415 994.158 673.967 994.154 673.976 C 994.146 674.075 918.710 1667.992 918.703 1668.093 Z"/>
<path fill="#303030" fill-rule="evenodd" stroke="none" d="M 976.736 1319.190 C 961.858 1316.622 932.577 1287.233 915.254 1273.052 C 945.081 1276.197 973.599 1296.533 986.665 1299.241 C 1007.797 1303.621 1031.764 1306.736 1047.981 1294.405 C 1029.049 1316.505 1002.826 1323.694 976.736 1319.190 M 836.374 1236.253 C 818.947 1238.031 803.831 1264.430 802.261 1277.817 C 817.668 1261.788 826.453 1260.953 839.344 1258.136 C 860.933 1253.419 909.736 1267.677 935.548 1274.966 C 904.933 1243.304 860.936 1233.748 836.374 1236.253 M 805.141 1587.195 C 823.805 1658.380 1027.667 1620.335 1076.824 1613.744 C 1007.668 1602.823 910.531 1621.118 907.347 1578.223 C 905.100 1547.950 966.903 1539.880 992.301 1523.253 C 1021.383 1504.215 1070.936 1489.023 1088.894 1459.261 C 1097.073 1445.706 1104.652 1405.349 1089.424 1392.200 C 1050.374 1358.480 885.783 1425.540 842.605 1393.417 C 831.251 1384.970 826.674 1367.129 824.287 1349.947 C 821.125 1327.185 822.870 1288.599 841.638 1275.337 C 880.416 1247.937 970.351 1370.660 1031.996 1360.201 C 1048.617 1357.381 1071.889 1342.539 1077.617 1327.390 C 1089.125 1296.953 1072.535 1251.141 1063.735 1219.813 C 1053.308 1182.693 1035.504 1136.344 1004.813 1097.291 C 1009.508 1157.180 1055.011 1244.208 1012.977 1273.551 C 967.952 1304.983 902.797 1173.509 804.696 1210.112 C 769.551 1223.224 738.286 1274.082 737.257 1321.760 C 736.337 1364.375 731.014 1421.076 759.392 1447.968 C 807.277 1493.345 958.115 1426.487 980.477 1448.270 C 1003.953 1471.137 788.001 1521.820 805.141 1587.195 Z"/>
<path fill="#303030" fill-rule="evenodd" stroke="none" d="M 920.719 572.705 C 921.539 562.226 920.697 542.195 920.876 527.894 C 960.869 528.264 1003.849 523.698 1024.434 499.960 C 1047.458 473.408 1058.740 422.131 1043.982 381.985 C 1024.544 417.631 983.622 444.175 915.659 446.461 C 974.278 428.262 1003.927 373.457 1021.567 331.568 C 1042.509 281.838 1044.087 193.327 1021.112 148.877 C 1024.980 199.611 985.584 249.799 947.206 273.322 C 909.326 296.540 873.561 274.049 813.444 347.332 C 793.877 379.682 798.345 438.493 813.070 473.357 C 829.839 513.061 878.308 568.319 920.719 572.705 Z"/>
</g>
</svg>
