<?xml version="1.0" encoding="utf-8"?>
<!-- Generator: Moho 12.5 build 22438 -->
<!DOCTYPE svg PUBLIC "-//W3C//DTD SVG 1.1//EN" "http://www.w3.org/Graphics/SVG/1.1/DTD/svg11.dtd">
<svg version="1.1" id="Frame_1" xmlns="http://www.w3.org/2000/svg" xmlns:xlink="http://www.w3.org/1999/xlink" width="1920px" height="1920px">
<g id="Logo">
<path fill="#303030" fill-rule="evenodd" stroke="none" d="M 769.055 1260.207 C 769.019 1260.207 414.148 1260.207 414.113 1260.207 C 414.113 1260.158 412.061 765.707 412.060 765.653 C 412.055 765.648 367.140 723.439 367.135 723.435 C 367.148 723.435 471.705 722.855 471.715 722.855 C 471.715 722.851 471.246 686.077 471.246 686.073 C 471.230 686.073 329.321 686.980 329.307 686.980 C 329.296 686.969 243.082 605.007 243.073 604.999 C 243.099 604.999 453.390 605.922 453.412 605.922 C 453.412 605.919 452.904 575.226 452.904 575.222 C 452.880 575.223 213.454 576.813 213.428 576.813 C 213.407 576.794 50.634 422.049 50.617 422.033 C 50.681 422.033 687.216 422.033 687.286 422.033 C 687.296 422.033 769.055 491.530 769.055 491.538 C 769.055 491.623 769.055 1260.130 769.055 1260.207 Z"/>
<path fill="#303030" fill-rule="evenodd" stroke="none" d="M 1113.793 1260.207 C 1113.828 1260.207 1468.699 1260.207 1468.735 1260.207 C 1468.735 1260.158 1470.787 765.707 1470.787 765.653 C 1470.792 765.648 1515.708 723.439 1515.713 723.435 C 1515.700 723.435 1411.143 722.855 1411.132 722.855 C 1411.132 722.851 1411.602 686.077 1411.602 686.073 C 1411.617 686.073 1553.526 686.980 1553.541 686.980 C 1553.552 686.969 1639.766 605.007 1639.775 604.999 C 1639.749 604.999 1429.457 605.922 1429.436 605.922 C 1429.436 605.919 1429.943 575.226 1429.943 575.222 C 1429.967 575.223 1669.394 576.813 1669.420 576.813 C 1669.440 576.794 1832.214 422.049 1832.230 422.033 C 1832.167 422.033 1195.632 422.033 1195.562 422.033 C 1195.552 422.033 1113.793 491.530 1113.793 491.538 C 1113.793 491.623 1113.793 1260.130 1113.793 1260.207 Z"/>
<path fill="#303030" fill-rule="evenodd" stroke="none" d="M 760.603 886.299 C 760.639 886.299 1123.662 886.299 1123.699 886.299 C 1123.699 886.310 1123.699 992.049 1123.699 992.060 C 1123.662 992.060 760.639 992.060 760.603 992.060 C 760.603 992.049 760.603 886.310 760.603 886.299 Z"/>
<path fill="#303030" fill-rule="evenodd" stroke="none" d="M 925.649 654.496 C 925.650 654.543 933.225 1121.221 933.226 1121.268 C 933.229 1121.221 960.735 654.832 960.738 654.786 C 960.733 654.782 913.553 619.961 913.548 619.957 C 913.549 619.961 925.648 654.493 925.649 654.496 M 926.057 1855.621 C 926.052 1855.501 878.193 666.608 878.188 666.489 C 878.182 666.479 817.141 561.219 817.135 561.209 C 817.160 561.209 1063.292 561.209 1063.317 561.209 C 1063.312 561.219 1016.518 663.785 1016.513 663.796 C 1016.504 663.915 926.066 1855.501 926.057 1855.621 Z"/>
<path fill="#303030" fill-rule="evenodd" stroke="none" d="M 995.631 1437.330 C 977.794 1434.251 942.691 1399.016 921.922 1382.016 C 957.682 1385.786 991.870 1410.166 1007.536 1413.413 C 1032.870 1418.664 1061.603 1422.399 1081.046 1407.615 C 1058.348 1434.110 1026.910 1442.729 995.631 1437.330 M 827.355 1337.898 C 806.462 1340.029 788.339 1371.679 786.457 1387.728 C 804.928 1368.511 815.461 1367.510 830.915 1364.133 C 856.798 1358.478 915.306 1375.571 946.252 1384.310 C 909.549 1346.351 856.801 1334.895 827.355 1337.898 M 789.910 1758.634 C 812.286 1843.977 1056.691 1798.365 1115.625 1790.463 C 1032.716 1777.370 916.260 1799.304 912.443 1747.878 C 909.749 1711.584 983.843 1701.909 1014.292 1681.976 C 1049.158 1659.151 1108.566 1640.938 1130.095 1605.257 C 1139.901 1589.006 1148.987 1540.623 1130.731 1524.859 C 1083.915 1484.433 886.590 1564.830 834.825 1526.319 C 821.212 1516.192 815.725 1494.802 812.864 1474.203 C 809.073 1446.914 811.165 1400.654 833.665 1384.755 C 880.156 1351.905 987.977 1499.036 1061.881 1486.497 C 1081.807 1483.116 1109.708 1465.322 1116.575 1447.160 C 1130.373 1410.669 1110.482 1355.747 1099.932 1318.188 C 1087.432 1273.685 1066.087 1218.118 1029.293 1171.299 C 1034.922 1243.099 1089.474 1347.435 1039.080 1382.614 C 985.100 1420.296 906.988 1262.675 789.376 1306.557 C 747.242 1322.278 709.759 1383.250 708.525 1440.410 C 707.422 1491.501 701.041 1559.478 735.063 1591.718 C 792.471 1646.120 973.307 1565.965 1000.117 1592.080 C 1028.261 1619.495 769.361 1680.258 789.910 1758.634 Z"/>
<path fill="#303030" fill-rule="evenodd" stroke="none" d="M 928.474 542.384 C 929.456 529.821 928.447 505.806 928.662 488.662 C 976.609 489.104 1028.136 483.631 1052.815 455.172 C 1080.419 423.339 1093.944 361.865 1076.252 313.734 C 1052.948 356.470 1003.888 388.293 922.408 391.033 C 992.684 369.215 1028.230 303.510 1049.378 253.290 C 1074.485 193.671 1076.377 87.556 1048.833 34.267 C 1053.470 95.089 1006.240 155.259 960.228 183.461 C 914.815 211.296 871.937 184.332 799.864 272.190 C 776.406 310.974 781.763 381.480 799.416 423.278 C 819.520 470.878 877.629 537.126 928.474 542.384 Z"/>
</g>
</svg>
